<mxfile host="app.diagrams.net" modified="2023-10-02T08:16:57.599Z" agent="Mozilla/5.0 (Windows NT 10.0; Win64; x64) AppleWebKit/537.36 (KHTML, like Gecko) Chrome/116.0.0.0 Safari/537.36" etag="3NraHsvGTs_Qoc9e_tn2" version="22.0.0" type="github">
  <diagram name="PÃ¡gina-1" id="jLuzDjs_3gD7ou02GSPw">
    <mxGraphModel dx="678" dy="385" grid="1" gridSize="10" guides="1" tooltips="1" connect="1" arrows="1" fold="1" page="1" pageScale="1" pageWidth="827" pageHeight="1169" math="0" shadow="0">
      <root>
        <mxCell id="0" />
        <mxCell id="1" parent="0" />
        <mxCell id="sgI7N6VsjcDCF-FnnvvP-5" style="edgeStyle=orthogonalEdgeStyle;rounded=0;orthogonalLoop=1;jettySize=auto;html=1;entryX=0;entryY=0.5;entryDx=0;entryDy=0;" parent="1" source="sgI7N6VsjcDCF-FnnvvP-1" target="sgI7N6VsjcDCF-FnnvvP-4" edge="1">
          <mxGeometry relative="1" as="geometry">
            <Array as="points">
              <mxPoint x="462" y="220" />
              <mxPoint x="462" y="110" />
            </Array>
          </mxGeometry>
        </mxCell>
        <mxCell id="sgI7N6VsjcDCF-FnnvvP-1" value="Cursos" style="whiteSpace=wrap;html=1;align=center;" parent="1" vertex="1">
          <mxGeometry x="482" y="200" width="100" height="40" as="geometry" />
        </mxCell>
        <mxCell id="sgI7N6VsjcDCF-FnnvvP-2" value="Ediciones" style="whiteSpace=wrap;html=1;align=center;" parent="1" vertex="1">
          <mxGeometry x="638" y="400" width="100" height="40" as="geometry" />
        </mxCell>
        <mxCell id="sgI7N6VsjcDCF-FnnvvP-3" value="Empleados" style="whiteSpace=wrap;html=1;align=center;" parent="1" vertex="1">
          <mxGeometry x="328" y="400" width="100" height="40" as="geometry" />
        </mxCell>
        <mxCell id="sgI7N6VsjcDCF-FnnvvP-7" style="edgeStyle=orthogonalEdgeStyle;rounded=0;orthogonalLoop=1;jettySize=auto;html=1;entryX=1;entryY=0.5;entryDx=0;entryDy=0;" parent="1" source="sgI7N6VsjcDCF-FnnvvP-4" target="sgI7N6VsjcDCF-FnnvvP-1" edge="1">
          <mxGeometry relative="1" as="geometry">
            <Array as="points">
              <mxPoint x="602" y="110" />
              <mxPoint x="602" y="220" />
            </Array>
          </mxGeometry>
        </mxCell>
        <mxCell id="sgI7N6VsjcDCF-FnnvvP-4" value="Requisito" style="shape=rhombus;perimeter=rhombusPerimeter;whiteSpace=wrap;html=1;align=center;" parent="1" vertex="1">
          <mxGeometry x="486" y="90" width="92" height="40" as="geometry" />
        </mxCell>
        <mxCell id="sgI7N6VsjcDCF-FnnvvP-6" value="(0, n)" style="text;strokeColor=none;fillColor=none;spacingLeft=4;spacingRight=4;overflow=hidden;rotatable=0;points=[[0,0.5],[1,0.5]];portConstraint=eastwest;fontSize=12;whiteSpace=wrap;html=1;" parent="1" vertex="1">
          <mxGeometry x="418" y="190" width="40" height="30" as="geometry" />
        </mxCell>
        <mxCell id="sgI7N6VsjcDCF-FnnvvP-8" value="(0, n)" style="text;strokeColor=none;fillColor=none;spacingLeft=4;spacingRight=4;overflow=hidden;rotatable=0;points=[[0,0.5],[1,0.5]];portConstraint=eastwest;fontSize=12;whiteSpace=wrap;html=1;" parent="1" vertex="1">
          <mxGeometry x="608" y="190" width="40" height="30" as="geometry" />
        </mxCell>
        <mxCell id="sgI7N6VsjcDCF-FnnvvP-9" value="N : M" style="text;strokeColor=none;fillColor=none;spacingLeft=4;spacingRight=4;overflow=hidden;rotatable=0;points=[[0,0.5],[1,0.5]];portConstraint=eastwest;fontSize=12;whiteSpace=wrap;html=1;" parent="1" vertex="1">
          <mxGeometry x="512" y="60" width="40" height="30" as="geometry" />
        </mxCell>
        <mxCell id="sgI7N6VsjcDCF-FnnvvP-13" style="edgeStyle=orthogonalEdgeStyle;rounded=0;orthogonalLoop=1;jettySize=auto;html=1;entryX=0.5;entryY=1;entryDx=0;entryDy=0;" parent="1" source="sgI7N6VsjcDCF-FnnvvP-10" target="sgI7N6VsjcDCF-FnnvvP-1" edge="1">
          <mxGeometry relative="1" as="geometry" />
        </mxCell>
        <mxCell id="sgI7N6VsjcDCF-FnnvvP-14" style="edgeStyle=orthogonalEdgeStyle;rounded=0;orthogonalLoop=1;jettySize=auto;html=1;entryX=0.5;entryY=0;entryDx=0;entryDy=0;" parent="1" source="sgI7N6VsjcDCF-FnnvvP-10" target="sgI7N6VsjcDCF-FnnvvP-2" edge="1">
          <mxGeometry relative="1" as="geometry" />
        </mxCell>
        <mxCell id="sgI7N6VsjcDCF-FnnvvP-10" value="Tiene" style="shape=rhombus;perimeter=rhombusPerimeter;whiteSpace=wrap;html=1;align=center;" parent="1" vertex="1">
          <mxGeometry x="580" y="300" width="68" height="40" as="geometry" />
        </mxCell>
        <mxCell id="sgI7N6VsjcDCF-FnnvvP-15" value="(1, n)" style="text;strokeColor=none;fillColor=none;spacingLeft=4;spacingRight=4;overflow=hidden;rotatable=0;points=[[0,0.5],[1,0.5]];portConstraint=eastwest;fontSize=12;whiteSpace=wrap;html=1;" parent="1" vertex="1">
          <mxGeometry x="638" y="370" width="40" height="30" as="geometry" />
        </mxCell>
        <mxCell id="sgI7N6VsjcDCF-FnnvvP-16" value="(1, 1)" style="text;strokeColor=none;fillColor=none;spacingLeft=4;spacingRight=4;overflow=hidden;rotatable=0;points=[[0,0.5],[1,0.5]];portConstraint=eastwest;fontSize=12;whiteSpace=wrap;html=1;" parent="1" vertex="1">
          <mxGeometry x="542" y="240" width="40" height="30" as="geometry" />
        </mxCell>
        <mxCell id="sgI7N6VsjcDCF-FnnvvP-17" value="1 : N" style="text;strokeColor=none;fillColor=none;spacingLeft=4;spacingRight=4;overflow=hidden;rotatable=0;points=[[0,0.5],[1,0.5]];portConstraint=eastwest;fontSize=12;whiteSpace=wrap;html=1;" parent="1" vertex="1">
          <mxGeometry x="648" y="305" width="40" height="30" as="geometry" />
        </mxCell>
        <mxCell id="sgI7N6VsjcDCF-FnnvvP-19" style="edgeStyle=orthogonalEdgeStyle;rounded=0;orthogonalLoop=1;jettySize=auto;html=1;entryX=0.5;entryY=1;entryDx=0;entryDy=0;" parent="1" source="sgI7N6VsjcDCF-FnnvvP-18" target="sgI7N6VsjcDCF-FnnvvP-1" edge="1">
          <mxGeometry relative="1" as="geometry" />
        </mxCell>
        <mxCell id="sgI7N6VsjcDCF-FnnvvP-20" style="edgeStyle=orthogonalEdgeStyle;rounded=0;orthogonalLoop=1;jettySize=auto;html=1;entryX=0.5;entryY=0;entryDx=0;entryDy=0;" parent="1" source="sgI7N6VsjcDCF-FnnvvP-18" target="sgI7N6VsjcDCF-FnnvvP-3" edge="1">
          <mxGeometry relative="1" as="geometry" />
        </mxCell>
        <mxCell id="sgI7N6VsjcDCF-FnnvvP-18" value="Impartidos" style="shape=rhombus;perimeter=rhombusPerimeter;whiteSpace=wrap;html=1;align=center;" parent="1" vertex="1">
          <mxGeometry x="418" y="300" width="68" height="40" as="geometry" />
        </mxCell>
        <mxCell id="sgI7N6VsjcDCF-FnnvvP-21" value="(0, n)" style="text;strokeColor=none;fillColor=none;spacingLeft=4;spacingRight=4;overflow=hidden;rotatable=0;points=[[0,0.5],[1,0.5]];portConstraint=eastwest;fontSize=12;whiteSpace=wrap;html=1;" parent="1" vertex="1">
          <mxGeometry x="482" y="240" width="40" height="30" as="geometry" />
        </mxCell>
        <mxCell id="sgI7N6VsjcDCF-FnnvvP-22" value="(1, n)" style="text;strokeColor=none;fillColor=none;spacingLeft=4;spacingRight=4;overflow=hidden;rotatable=0;points=[[0,0.5],[1,0.5]];portConstraint=eastwest;fontSize=12;whiteSpace=wrap;html=1;" parent="1" vertex="1">
          <mxGeometry x="388" y="370" width="40" height="30" as="geometry" />
        </mxCell>
        <mxCell id="sgI7N6VsjcDCF-FnnvvP-23" value="N : M" style="text;strokeColor=none;fillColor=none;spacingLeft=4;spacingRight=4;overflow=hidden;rotatable=0;points=[[0,0.5],[1,0.5]];portConstraint=eastwest;fontSize=12;whiteSpace=wrap;html=1;" parent="1" vertex="1">
          <mxGeometry x="378" y="305" width="40" height="30" as="geometry" />
        </mxCell>
        <mxCell id="sgI7N6VsjcDCF-FnnvvP-27" value="Docente" style="shape=rhombus;perimeter=rhombusPerimeter;whiteSpace=wrap;html=1;align=center;" parent="1" vertex="1">
          <mxGeometry x="300" y="545" width="68" height="40" as="geometry" />
        </mxCell>
        <mxCell id="X2wsM6hCoke-8R_Wzetd-1" value="" style="ellipse;whiteSpace=wrap;html=1;aspect=fixed;" vertex="1" parent="1">
          <mxGeometry x="368" y="450" width="20" height="20" as="geometry" />
        </mxCell>
        <mxCell id="X2wsM6hCoke-8R_Wzetd-2" value="" style="triangle;whiteSpace=wrap;html=1;rotation=90;" vertex="1" parent="1">
          <mxGeometry x="358" y="470" width="40" height="60" as="geometry" />
        </mxCell>
        <mxCell id="X2wsM6hCoke-8R_Wzetd-5" value="" style="curved=1;endArrow=none;html=1;rounded=0;endFill=0;" edge="1" parent="1">
          <mxGeometry width="50" height="50" relative="1" as="geometry">
            <mxPoint x="418" y="510" as="sourcePoint" />
            <mxPoint x="338" y="510" as="targetPoint" />
            <Array as="points">
              <mxPoint x="408" y="530" />
              <mxPoint x="348" y="530" />
            </Array>
          </mxGeometry>
        </mxCell>
        <mxCell id="X2wsM6hCoke-8R_Wzetd-6" value="" style="endArrow=none;html=1;rounded=0;entryX=0.5;entryY=1;entryDx=0;entryDy=0;exitX=0.5;exitY=0;exitDx=0;exitDy=0;" edge="1" parent="1" source="sgI7N6VsjcDCF-FnnvvP-27" target="X2wsM6hCoke-8R_Wzetd-2">
          <mxGeometry width="50" height="50" relative="1" as="geometry">
            <mxPoint x="478" y="540" as="sourcePoint" />
            <mxPoint x="528" y="490" as="targetPoint" />
          </mxGeometry>
        </mxCell>
        <mxCell id="X2wsM6hCoke-8R_Wzetd-7" value="Alumno" style="shape=rhombus;perimeter=rhombusPerimeter;whiteSpace=wrap;html=1;align=center;" vertex="1" parent="1">
          <mxGeometry x="388" y="545" width="68" height="40" as="geometry" />
        </mxCell>
        <mxCell id="X2wsM6hCoke-8R_Wzetd-8" value="" style="endArrow=none;html=1;rounded=0;entryX=0.5;entryY=0;entryDx=0;entryDy=0;exitX=0.5;exitY=0;exitDx=0;exitDy=0;" edge="1" parent="1" source="X2wsM6hCoke-8R_Wzetd-7" target="X2wsM6hCoke-8R_Wzetd-2">
          <mxGeometry width="50" height="50" relative="1" as="geometry">
            <mxPoint x="354" y="580" as="sourcePoint" />
            <mxPoint x="373" y="510" as="targetPoint" />
          </mxGeometry>
        </mxCell>
        <mxCell id="X2wsM6hCoke-8R_Wzetd-9" value="" style="endArrow=none;html=1;rounded=0;entryX=0.5;entryY=1;entryDx=0;entryDy=0;exitX=0;exitY=0.5;exitDx=0;exitDy=0;" edge="1" parent="1" source="X2wsM6hCoke-8R_Wzetd-2" target="sgI7N6VsjcDCF-FnnvvP-3">
          <mxGeometry width="50" height="50" relative="1" as="geometry">
            <mxPoint x="432" y="555" as="sourcePoint" />
            <mxPoint x="403" y="510" as="targetPoint" />
          </mxGeometry>
        </mxCell>
        <mxCell id="X2wsM6hCoke-8R_Wzetd-11" value="Codigo" style="ellipse;whiteSpace=wrap;html=1;align=center;fontStyle=4;" vertex="1" parent="1">
          <mxGeometry x="60" y="250" width="100" height="40" as="geometry" />
        </mxCell>
        <mxCell id="X2wsM6hCoke-8R_Wzetd-12" value="Nombre" style="ellipse;whiteSpace=wrap;html=1;align=center;" vertex="1" parent="1">
          <mxGeometry x="50" y="300" width="100" height="40" as="geometry" />
        </mxCell>
        <mxCell id="X2wsM6hCoke-8R_Wzetd-13" value="Apellidos" style="ellipse;whiteSpace=wrap;html=1;align=center;" vertex="1" parent="1">
          <mxGeometry x="50" y="350" width="100" height="40" as="geometry" />
        </mxCell>
        <mxCell id="X2wsM6hCoke-8R_Wzetd-14" value="Direccion" style="ellipse;whiteSpace=wrap;html=1;align=center;" vertex="1" parent="1">
          <mxGeometry x="50" y="400" width="100" height="40" as="geometry" />
        </mxCell>
        <mxCell id="X2wsM6hCoke-8R_Wzetd-15" value="Telefono" style="ellipse;whiteSpace=wrap;html=1;align=center;" vertex="1" parent="1">
          <mxGeometry x="50" y="450" width="100" height="40" as="geometry" />
        </mxCell>
        <mxCell id="X2wsM6hCoke-8R_Wzetd-16" value="Celula" style="ellipse;whiteSpace=wrap;html=1;align=center;" vertex="1" parent="1">
          <mxGeometry x="50" y="500" width="100" height="40" as="geometry" />
        </mxCell>
        <mxCell id="X2wsM6hCoke-8R_Wzetd-17" value="FechaNac" style="ellipse;whiteSpace=wrap;html=1;align=center;" vertex="1" parent="1">
          <mxGeometry x="60" y="550" width="100" height="40" as="geometry" />
        </mxCell>
      </root>
    </mxGraphModel>
  </diagram>
</mxfile>
